#!OML:ASF H:\Dans Jumps\Project 1\Capture day 1\Session 1\subject.ASF
:FULLY-SPECIFIED
:DEGREES
376
root 0.15457 20.4653 -2.92478 9.18567 5.03903 -0.737496
lowerback 3.13864 -0.244779 -1.65856
upperback 4.0245 -0.360952 0.997943
thorax 2.39219 -0.238372 1.95856
lowerneck -10.5848 -1.06194 -1.86801
upperneck 27.2116 -1.83088 2.76165
head 10.4826 -0.699853 1.08807
rclavicle 1.27968e-015 -1.24737e-014
rhumerus -25.7258 -12.7416 -80.0817
rradius 26.3071
rwrist 32.4508
rhand -20.6375 -27.0819
rfingers 7.12502
rthumb 5.72434 -56.9846
lclavicle 1.27968e-015 -1.24737e-014
lhumerus -18.1762 1.43897 85.8261
lradius 19.9549
lwrist 14.695
lhand -28.7705 -10.8986
lfingers 7.12502
lthumb -2.13008 19.0705
rfemur -25.9415 -6.94883 20.841
rtibia 27.5881
rfoot 13.9765 -3.74775
rtoes 15.3034
lfemur -28.2661 4.76268 -17.2043
ltibia 24.4877
lfoot 18.4175 -5.99498
ltoes 6.76468
377
root 0.153696 20.3342 -2.71887 9.10083 4.99533 -0.823215
lowerback 2.91695 -0.187158 -1.56793
upperback 4.0094 -0.280267 0.987599
thorax 2.49627 -0.196432 1.89544
lowerneck -10.4486 -1.08989 -1.87707
upperneck 27.3897 -1.89198 2.82967
head 10.5242 -0.720709 1.10853
rclavicle 2.50966e-015 1.06847e-014
rhumerus -26.092 -12.54 -79.992
rradius 26.4467
rwrist 32.1827
rhand -20.7519 -27.2045
rfingers 7.12502
rthumb 5.61385 -57.1102
lclavicle 2.50966e-015 1.06847e-014
lhumerus -18.5933 1.23549 85.6677
lradius 20.1967
lwrist 15.4616
lhand -28.8332 -10.9023
lfingers 7.12502
lthumb -2.1906 19.0662
rfemur -25.7019 -6.78489 20.8418
rtibia 25.0842
rfoot 14.6257 -4.04072
rtoes 15.399
lfemur -28.1157 4.65803 -17.1727
ltibia 22.6009
lfoot 18.9906 -5.97368
ltoes 6.59976
378
root 0.152786 20.1916 -2.51124 9.007 4.92486 -0.898314
lowerback 2.65927 -0.122729 -1.48543
upperback 3.99345 -0.190481 0.971505
thorax 2.61968 -0.15019 1.83137
lowerneck -10.3077 -1.11587 -1.88917
upperneck 27.5779 -1.9487 2.89268
head 10.5688 -0.740397 1.12845
rclavicle -2.08475e-014 1.59028e-015
rhumerus -26.4287 -12.2981 -79.9361
rradius 26.5779
rwrist 31.9503
rhand -20.8696 -27.3421
rfingers 7.12502
rthumb 5.50024 -57.2507
lclavicle -2.08475e-014 1.59028e-015
lhumerus -19.0064 1.05853 85.493
lradius 20.4099
lwrist 16.2551
lhand -28.8212 -11.0737
lfingers 7.12502
lthumb -2.17906 18.8949
rfemur -25.4973 -6.56824 20.8047
rtibia 22.7709
rfoot 15.2859 -4.50226
rtoes 15.8542
lfemur -27.9406 4.69293 -17.1997
ltibia 20.8198
lfoot 19.5708 -5.9092
ltoes 6.51869
379
root 0.152164 20.0362 -2.30209 8.89373 4.8278 -0.959046
lowerback 2.37414 -0.0525677 -1.40937
upperback 3.9837 -0.0930358 0.947485
thorax 2.76506 -0.100346 1.76342
lowerneck -10.1785 -1.1386 -1.9034
upperneck 27.7784 -1.9982 2.94664
head 10.6201 -0.75785 1.14652
rclavicle 2.60905e-016 6.38596e-015
rhumerus -26.7329 -12.0191 -79.9141
rradius 26.7058
rwrist 31.772
rhand -20.9934 -27.4757
rfingers 7.12502
rthumb 5.38073 -57.3874
lclavicle 2.60905e-016 6.38596e-015
lhumerus -19.3933 0.901344 85.3011
lradius 20.5733
lwrist 17.006
lhand -28.7517 -11.3411
lfingers 7.12502
lthumb -2.11195 18.6281
rfemur -25.3414 -6.31217 20.7297
rtibia 20.7286
rfoot 15.8666 -5.12843
rtoes 16.6316
lfemur -27.739 4.86601 -17.2939
ltibia 19.2
lfoot 20.12 -5.78276
ltoes 6.54859
380
root 0.151989 19.8671 -2.09219 8.75017 4.71577 -1.00443
lowerback 2.0807 0.0198555 -1.3368
upperback 3.98359 0.00728359 0.916934
thorax 2.9255 -0.0491629 1.69159
lowerneck -10.0723 -1.15935 -1.92928
upperneck 27.9935 -2.04193 2.99791
head 10.6816 -0.773881 1.16649
rclavicle 5.86415e-015 1.66482e-015
rhumerus -26.9873 -11.7354 -79.917
rradius 26.8105
rwrist 31.6753
rhand -21.1106 -27.5955
rfingers 7.12502
rthumb 5.26756 -57.51
lclavicle 5.86415e-015 1.66482e-015
lhumerus -19.7503 0.766953 85.0953
lradius 20.6851
lwrist 17.6367
lhand -28.6481 -11.6371
lfingers 7.12502
lthumb -2.01184 18.3332
rfemur -25.2462 -6.02489 20.6192
rtibia 19.0341
rfoot 16.2973 -5.90216
rtoes 17.6745
lfemur -27.5131 5.14535 -17.4498
ltibia 17.7913
lfoot 20.6306 -5.59799
ltoes 6.65644
381
root 0.152511 19.6834 -1.88236 8.56784 4.59528 -1.03246
lowerback 1.79595 0.0922853 -1.26513
upperback 3.99699 0.107368 0.87975
thorax 3.09561 0.00193312 1.61433
lowerneck -10.0039 -1.17982 -1.96484
upperneck 28.2245 -2.08162 3.04299
head 10.7569 -0.789372 1.18651
rclavicle 5.69021e-015 -5.61567e-015
rhumerus -27.1854 -11.4501 -79.9403
rradius 26.8867
rwrist 31.646
rhand -21.2242 -27.6868
rfingers 7.12502
rthumb 5.15786 -57.604
lclavicle 5.69021e-015 -5.61567e-015
lhumerus -20.0638 0.672845 84.8761
lradius 20.7329
lwrist 18.0557
lhand -28.5507 -11.8836
lfingers 7.12502
lthumb -1.91778 18.0876
rfemur -25.2195 -5.72007 20.4775
rtibia 17.7469
rfoot 16.5606 -6.76742
rtoes 18.8711
lfemur -27.2579 5.47331 -17.6492
ltibia 16.6296
lfoot 21.1239 -5.33375
ltoes 6.81422
382
root 0.153866 19.4847 -1.67372 8.33961 4.46804 -1.04006
lowerback 1.54569 0.163743 -1.19819
upperback 4.01852 0.205669 0.839082
thorax 3.25537 0.0522212 1.53689
lowerneck -9.9715 -1.19832 -2.01545
upperneck 28.4684 -2.11323 3.0805
head 10.8443 -0.80326 1.20746
rclavicle -1.33558e-015 1.06101e-014
rhumerus -27.3303 -11.1719 -79.9716
rradius 26.9279
rwrist 31.6723
rhand -21.3296 -27.7467
rfingers 7.12502
rthumb 5.05615 -57.6664
lclavicle -1.33558e-015 1.06101e-014
lhumerus -20.3348 0.626443 84.6532
lradius 20.701
lwrist 18.209
lhand -28.496 -11.9846
lfingers 7.12502
lthumb -1.86496 17.987
rfemur -25.2659 -5.42026 20.3121
rtibia 16.9099
rfoot 16.7053 -7.63611
rtoes 20.1346
lfemur -26.9691 5.79647 -17.8751
ltibia 15.7423
lfoot 21.6316 -4.98592
ltoes 6.9846
